<svg width="248" height="48" viewBox="0 0 248 48" fill="none" xmlns="http://www.w3.org/2000/svg">
<path d="M241.818 30.87C241.818 32.894 243.014 34.274 245.452 34.274C246.372 34.274 247.246 34.09 247.936 33.952V37.77C247.246 37.954 246.464 38.138 245.268 38.138C240.346 38.138 237.954 35.24 237.954 30.962V18.68H234.228V15H237.954V10.124H241.818V15H247.936V18.68H241.818V30.87Z" fill="white"/>
<path d="M221.512 18.128C217.326 18.128 215.21 20.842 214.796 24.844H227.63C227.4 20.566 225.468 18.128 221.512 18.128ZM230.344 37.08C228.458 38.092 225.56 38.46 223.214 38.46C214.612 38.46 210.84 33.492 210.84 26.454C210.84 19.508 214.704 14.54 221.696 14.54C228.78 14.54 231.632 19.462 231.632 26.454V28.248H214.842C215.394 32.158 217.924 34.688 223.352 34.688C226.02 34.688 228.274 34.182 230.344 33.446V37.08Z" fill="white"/>
<path d="M194.613 37.9997H190.657V5.38574H194.613V25.7637L204.503 14.9997H209.655L198.845 26.3157L210.115 37.9997H204.733L194.613 27.2357V37.9997Z" fill="white"/>
<path d="M186.141 33.86V37.402C184.761 38.138 182.645 38.46 180.529 38.46C172.341 38.46 168.523 33.492 168.523 26.454C168.523 19.508 172.341 14.54 180.529 14.54C182.599 14.54 184.209 14.816 186.003 15.644V19.324C184.531 18.634 182.967 18.22 180.805 18.22C174.825 18.22 172.387 21.992 172.387 26.454C172.387 30.916 174.871 34.688 180.897 34.688C183.243 34.688 184.715 34.366 186.141 33.86Z" fill="white"/>
<path d="M144.377 28.478V15H148.333V28.892C148.333 33.032 149.989 34.872 153.761 34.872C157.441 34.872 159.971 32.434 159.971 27.788V15H163.927V38H159.971V34.228C158.499 36.942 155.785 38.46 152.703 38.46C147.413 38.46 144.377 34.826 144.377 28.478Z" fill="white"/>
<path d="M136.295 26.4997C136.295 20.9797 134.087 18.2197 129.993 18.2197C126.451 18.2197 123.277 20.4737 123.277 25.5797V27.4197C123.277 32.5257 126.175 34.7797 129.533 34.7797C133.995 34.7797 136.295 31.8357 136.295 26.4997ZM130.591 38.4597C127.233 38.4597 124.657 36.9417 123.277 33.9517V37.9997H119.321V5.38574H123.277V19.1397C124.749 16.1037 127.509 14.5397 131.051 14.5397C137.169 14.5397 140.251 19.7377 140.251 26.4997C140.251 32.9857 137.031 38.4597 130.591 38.4597Z" fill="white"/>
<path d="M108.13 30.87C108.13 32.894 109.326 34.274 111.764 34.274C112.684 34.274 113.558 34.09 114.248 33.952V37.77C113.558 37.954 112.776 38.138 111.58 38.138C106.658 38.138 104.266 35.24 104.266 30.962V18.68H100.54V15H104.266V10.124H108.13V15H114.248V18.68H108.13V30.87Z" fill="white"/>
<path d="M91.9922 8.92797C91.9922 7.17997 93.1422 6.16797 94.7522 6.16797C96.3622 6.16797 97.5122 7.17997 97.5122 8.92797C97.5122 10.676 96.3622 11.688 94.7522 11.688C93.1422 11.688 91.9922 10.676 91.9922 8.92797ZM92.7282 38V15H96.6842V38H92.7282Z" fill="white"/>
<path d="M77.9857 24.4293H68.6937V33.8593H78.0777C82.0337 33.8593 83.8277 32.4333 83.8277 29.3973C83.8277 26.1773 82.1257 24.4293 77.9857 24.4293ZM76.6517 11.7333H68.6937V20.7493H76.6517C80.5617 20.7493 82.1717 18.9553 82.1717 16.0573C82.1717 13.1133 80.4237 11.7333 76.6517 11.7333ZM64.5537 37.9993V7.77734H77.2037C83.3677 7.77734 86.3577 10.8133 86.3577 15.6893C86.3577 19.3233 84.7017 21.5773 81.2977 22.4053C85.7597 23.1413 87.9677 25.5793 87.9677 29.8573C87.9677 34.6873 84.7017 37.9993 77.9397 37.9993H64.5537Z" fill="white"/>
<path d="M0 12C0 5.37258 5.37258 0 12 0H36C42.6274 0 48 5.37258 48 12V36C48 42.6274 42.6274 48 36 48H12C5.37258 48 0 42.6274 0 36V12Z" fill="#94C748"/>
<path d="M35.6852 23.5267L33.7129 35.5747C33.5843 36.3036 33.0698 36.7323 32.3409 36.7323H15.6195C14.8906 36.7323 14.3761 36.3036 14.2475 35.5747L10.7746 14.0941C10.6459 13.3652 11.0318 12.8936 11.7178 12.8936H36.2426C36.9286 12.8936 37.3145 13.3652 37.1858 14.0941L36.2426 19.7536C36.1139 20.5683 35.6423 20.9113 34.8706 20.9113H20.1214C19.907 20.9113 19.7784 21.0399 19.8213 21.2971L20.9789 28.4145C21.0218 28.586 21.1504 28.7146 21.3219 28.7146H26.6385C26.81 28.7146 26.9386 28.586 26.9815 28.4145L27.7961 23.2694C27.8819 22.6263 28.3106 22.369 28.9109 22.369H34.6991C35.5566 22.369 35.8138 22.7978 35.6852 23.5267Z" fill="#101214"/>
</svg>
