<svg width="288" height="48" viewBox="0 0 288 48" fill="none" xmlns="http://www.w3.org/2000/svg">
<path d="M277.44 18.128C273.254 18.128 271.138 20.842 270.724 24.844H283.558C283.328 20.566 281.396 18.128 277.44 18.128ZM286.272 37.08C284.386 38.092 281.488 38.46 279.142 38.46C270.54 38.46 266.768 33.492 266.768 26.454C266.768 19.508 270.632 14.54 277.624 14.54C284.708 14.54 287.56 19.462 287.56 26.454V28.248H270.77C271.322 32.158 273.852 34.688 279.28 34.688C281.948 34.688 284.202 34.182 286.272 33.446V37.08Z" fill="#101214"/>
<path d="M258.314 36.16V33.86C256.842 36.896 254.082 38.46 250.54 38.46C244.468 38.46 241.432 33.262 241.432 26.5C241.432 20.014 244.606 14.54 251 14.54C254.358 14.54 256.934 16.058 258.314 19.048V15H262.178V35.93C262.178 42.692 259.004 47.246 250.77 47.246C246.906 47.246 244.79 46.74 242.582 46.004V42.14C245.112 42.968 247.734 43.52 250.586 43.52C256.336 43.52 258.314 40.438 258.314 36.16ZM245.296 26.5C245.296 32.02 247.504 34.78 251.598 34.78C255.14 34.78 258.314 32.526 258.314 27.42V25.58C258.314 20.474 255.416 18.22 252.058 18.22C247.596 18.22 245.296 21.164 245.296 26.5Z" fill="#101214"/>
<path d="M219.872 26.5C219.872 32.02 222.08 34.78 226.174 34.78C229.716 34.78 232.89 32.526 232.89 27.42V25.58C232.89 20.474 229.992 18.22 226.634 18.22C222.172 18.22 219.872 21.164 219.872 26.5ZM232.89 38V33.86C231.418 36.896 228.658 38.46 225.116 38.46C218.998 38.46 215.916 33.262 215.916 26.5C215.916 20.014 219.136 14.54 225.576 14.54C228.934 14.54 231.51 16.058 232.89 19.048V15H236.846V38H232.89Z" fill="#101214"/>
<path d="M208.754 26.5C208.754 20.98 206.546 18.22 202.452 18.22C198.91 18.22 195.736 20.474 195.736 25.58V27.42C195.736 32.526 198.634 34.78 201.992 34.78C206.454 34.78 208.754 31.836 208.754 26.5ZM203.05 38.46C199.692 38.46 197.116 36.942 195.736 33.952V46.97H191.78V15H195.736V19.14C197.208 16.104 199.968 14.54 203.51 14.54C209.628 14.54 212.71 19.738 212.71 26.5C212.71 32.986 209.49 38.46 203.05 38.46Z" fill="#101214"/>
<path d="M187.211 31.744C187.211 35.562 184.727 38.46 178.563 38.46C175.113 38.46 172.307 37.678 170.559 36.758V32.572C172.537 33.722 175.849 34.826 178.747 34.826C181.783 34.826 183.347 33.584 183.347 31.79C183.347 30.042 182.013 29.03 177.643 27.972C172.537 26.73 170.375 24.752 170.375 20.98C170.375 16.978 173.457 14.54 178.701 14.54C181.691 14.54 184.405 15.276 186.107 16.196V20.29C183.347 18.91 181.093 18.174 178.655 18.174C175.757 18.174 174.193 19.186 174.193 20.98C174.193 22.59 175.297 23.602 179.529 24.614C184.635 25.856 187.211 27.742 187.211 31.744Z" fill="#101214"/>
<path d="M145.814 28.478V15H149.77V28.892C149.77 33.032 151.426 34.872 155.198 34.872C158.878 34.872 161.408 32.434 161.408 27.788V15H165.364V38H161.408V34.228C159.936 36.942 157.222 38.46 154.14 38.46C148.85 38.46 145.814 34.826 145.814 28.478Z" fill="#101214"/>
<path d="M135.083 30.87C135.083 32.894 136.279 34.274 138.717 34.274C139.637 34.274 140.511 34.09 141.201 33.952V37.77C140.511 37.954 139.729 38.138 138.533 38.138C133.611 38.138 131.219 35.24 131.219 30.962V18.68H127.493V15H131.219V10.124H135.083V15H141.201V18.68H135.083V30.87Z" fill="#101214"/>
<path d="M106.669 26.5C106.669 32.02 108.877 34.78 112.971 34.78C116.513 34.78 119.687 32.526 119.687 27.42V25.58C119.687 20.474 116.789 18.22 113.431 18.22C108.969 18.22 106.669 21.164 106.669 26.5ZM119.687 38V33.86C118.215 36.896 115.455 38.46 111.913 38.46C105.795 38.46 102.713 33.262 102.713 26.5C102.713 20.014 105.933 14.54 112.373 14.54C115.731 14.54 118.307 16.058 119.687 19.048V15H123.643V38H119.687Z" fill="#101214"/>
<path d="M93.8 30.87C93.8 32.894 94.996 34.274 97.434 34.274C98.354 34.274 99.228 34.09 99.918 33.952V37.77C99.228 37.954 98.446 38.138 97.25 38.138C92.328 38.138 89.936 35.24 89.936 30.962V18.68H86.21V15H89.936V10.124H93.8V15H99.918V18.68H93.8V30.87Z" fill="#101214"/>
<path d="M83.4596 29.6744C83.4596 34.9184 80.3316 38.4604 72.8336 38.4604C66.9916 38.4604 64.2776 37.3104 61.9316 36.1144V31.8824C64.7376 33.3544 69.0616 34.4124 73.0636 34.4124C77.6176 34.4124 79.3196 32.6184 79.3196 29.9504C79.3196 27.2824 77.6636 25.8564 71.9136 24.4764C65.1056 22.8204 62.0696 20.4744 62.0696 15.5064C62.0696 10.8144 65.6576 7.31836 72.6956 7.31836C77.0656 7.31836 79.8716 8.37636 81.9416 9.52636V13.6664C78.9056 11.9184 75.6396 11.3664 72.5116 11.3664C68.5556 11.3664 66.2096 12.7464 66.2096 15.5064C66.2096 17.9904 68.1416 19.2324 73.4776 20.5664C79.8716 22.1764 83.4596 24.2464 83.4596 29.6744Z" fill="#101214"/>
<path d="M0 12C0 5.37258 5.37258 0 12 0H36C42.6274 0 48 5.37258 48 12V36C48 42.6274 42.6274 48 36 48H12C5.37258 48 0 42.6274 0 36V12Z" fill="#FFC716"/>
<path d="M23.8438 19.7953C20.1486 19.7953 16.5546 21.4658 13.6187 24.0473C13.315 24.351 13.0113 24.5029 12.7076 24.5029C12.4545 24.5029 12.2014 24.351 11.9989 24.0979L8.30371 19.7447C8.10124 19.4916 8 19.2385 8 19.036C8 18.7323 8.15186 18.4792 8.45557 18.1755C12.91 14.2272 18.3263 12 23.8438 12C29.3612 12 34.7775 14.2272 39.2319 18.1755C39.5356 18.4792 39.6875 18.7323 39.6875 19.036C39.6875 19.2385 39.5863 19.4916 39.3838 19.7447L35.6886 24.0979C35.4861 24.351 35.233 24.5029 34.9799 24.5029C34.6762 24.5029 34.3725 24.351 34.0688 24.0473C31.1329 21.4658 27.5389 19.7953 23.8438 19.7953ZM23.8438 36.0947C19.7436 36.0947 16.4028 32.7538 16.4028 28.7043C16.4028 24.6548 19.7436 21.3139 23.8438 21.3139C27.9439 21.3139 31.2847 24.6041 31.2847 28.7043C31.2847 32.8044 27.9439 36.0947 23.8438 36.0947Z" fill="#101214"/>
</svg>
