<svg width="169" height="48" viewBox="0 0 169 48" fill="none" xmlns="http://www.w3.org/2000/svg">
<path d="M157.46 38.46C150.56 38.46 146.512 33.354 146.512 26.454C146.512 19.554 150.56 14.54 157.46 14.54C164.314 14.54 168.316 19.554 168.316 26.454C168.316 33.354 164.314 38.46 157.46 38.46ZM157.46 18.22C152.538 18.22 150.376 22.084 150.376 26.454C150.376 30.824 152.538 34.78 157.46 34.78C162.336 34.78 164.452 30.824 164.452 26.454C164.452 22.084 162.336 18.22 157.46 18.22Z" fill="#101214"/>
<path d="M144.311 37.9537C143.989 38.0457 143.299 38.1377 142.287 38.1377C138.515 38.1377 136.123 36.3437 136.123 32.1117V5.38574H140.079V31.6517C140.079 33.7217 141.459 34.4577 143.161 34.4577C143.575 34.4577 143.851 34.4577 144.311 34.4117V37.9537Z" fill="#101214"/>
<path d="M132.317 37.9537C131.995 38.0457 131.305 38.1377 130.293 38.1377C126.521 38.1377 124.129 36.3437 124.129 32.1117V5.38574H128.085V31.6517C128.085 33.7217 129.465 34.4577 131.167 34.4577C131.581 34.4577 131.857 34.4577 132.317 34.4117V37.9537Z" fill="#101214"/>
<path d="M109.298 18.128C105.112 18.128 102.996 20.842 102.582 24.844H115.416C115.186 20.566 113.254 18.128 109.298 18.128ZM118.13 37.08C116.244 38.092 113.346 38.46 111 38.46C102.398 38.46 98.6256 33.492 98.6256 26.454C98.6256 19.508 102.49 14.54 109.482 14.54C116.566 14.54 119.418 19.462 119.418 26.454V28.248H102.628C103.18 32.158 105.71 34.688 111.138 34.688C113.806 34.688 116.06 34.182 118.13 33.446V37.08Z" fill="#101214"/>
<path d="M88.9106 24.4296V37.9996H85.0466V14.9996H88.9106V19.0476C90.2446 16.3336 92.5446 14.4016 97.0526 14.6776V18.5416C91.9926 18.0356 88.9106 19.5536 88.9106 24.4296Z" fill="#101214"/>
<path d="M60.414 7.77734H83.046V11.7333H73.8V37.9993H69.66V11.7333H60.414V7.77734Z" fill="#101214"/>
<path d="M0 12C0 5.37258 5.37258 0 12 0H36C42.6274 0 48 5.37258 48 12V36C48 42.6274 42.6274 48 36 48H12C5.37258 48 0 42.6274 0 36V12Z" fill="#1558BC"/>
<path d="M19.3456 36C20.2788 36 21.0362 35.263 21.0362 34.3519V13.6481C21.0362 12.7383 20.2801 12 19.3456 12H12.1906C11.2574 12 10.5 12.737 10.5 13.6481V34.3519C10.5 35.2617 11.2561 36 12.1906 36H19.3456Z" fill="white"/>
<path d="M35.8094 26.4952C36.7426 26.4952 37.5 25.7582 37.5 24.8471V13.6481C37.5 12.7383 36.744 12 35.8094 12H28.6544C27.7212 12 26.9638 12.737 26.9638 13.6481V24.8471C26.9638 25.7569 27.7199 26.4952 28.6544 26.4952H35.8094Z" fill="white"/>
</svg>
