<svg width="248" height="48" viewBox="0 0 248 48" fill="none" xmlns="http://www.w3.org/2000/svg">
<path d="M241.818 30.87C241.818 32.894 243.014 34.274 245.452 34.274C246.372 34.274 247.246 34.09 247.936 33.952V37.77C247.246 37.954 246.464 38.138 245.268 38.138C240.346 38.138 237.954 35.24 237.954 30.962V18.68H234.228V15H237.954V10.124H241.818V15H247.936V18.68H241.818V30.87Z" fill="#101214"/>
<path d="M221.512 18.128C217.326 18.128 215.21 20.842 214.796 24.844H227.63C227.4 20.566 225.468 18.128 221.512 18.128ZM230.344 37.08C228.458 38.092 225.56 38.46 223.214 38.46C214.612 38.46 210.84 33.492 210.84 26.454C210.84 19.508 214.704 14.54 221.696 14.54C228.78 14.54 231.632 19.462 231.632 26.454V28.248H214.842C215.394 32.158 217.924 34.688 223.352 34.688C226.02 34.688 228.274 34.182 230.344 33.446V37.08Z" fill="#101214"/>
<path d="M194.614 38.0002H190.658V5.38623H194.614V25.7642L204.504 15.0002H209.656L198.846 26.3162L210.116 38.0002H204.734L194.614 27.2362V38.0002Z" fill="#101214"/>
<path d="M186.142 33.86V37.402C184.762 38.138 182.646 38.46 180.53 38.46C172.342 38.46 168.524 33.492 168.524 26.454C168.524 19.508 172.342 14.54 180.53 14.54C182.6 14.54 184.21 14.816 186.004 15.644V19.324C184.532 18.634 182.968 18.22 180.806 18.22C174.826 18.22 172.388 21.992 172.388 26.454C172.388 30.916 174.872 34.688 180.898 34.688C183.244 34.688 184.716 34.366 186.142 33.86Z" fill="#101214"/>
<path d="M144.378 28.478V15H148.334V28.892C148.334 33.032 149.99 34.872 153.762 34.872C157.442 34.872 159.972 32.434 159.972 27.788V15H163.928V38H159.972V34.228C158.5 36.942 155.786 38.46 152.704 38.46C147.414 38.46 144.378 34.826 144.378 28.478Z" fill="#101214"/>
<path d="M136.296 26.5002C136.296 20.9802 134.088 18.2202 129.994 18.2202C126.452 18.2202 123.278 20.4742 123.278 25.5802V27.4202C123.278 32.5262 126.176 34.7802 129.534 34.7802C133.996 34.7802 136.296 31.8362 136.296 26.5002ZM130.592 38.4602C127.234 38.4602 124.658 36.9422 123.278 33.9522V38.0002H119.322V5.38623H123.278V19.1402C124.75 16.1042 127.51 14.5402 131.052 14.5402C137.17 14.5402 140.252 19.7382 140.252 26.5002C140.252 32.9862 137.032 38.4602 130.592 38.4602Z" fill="#101214"/>
<path d="M108.13 30.87C108.13 32.894 109.326 34.274 111.764 34.274C112.684 34.274 113.558 34.09 114.248 33.952V37.77C113.558 37.954 112.776 38.138 111.58 38.138C106.658 38.138 104.266 35.24 104.266 30.962V18.68H100.54V15H104.266V10.124H108.13V15H114.248V18.68H108.13V30.87Z" fill="#101214"/>
<path d="M91.9923 8.92846C91.9923 7.18046 93.1423 6.16846 94.7523 6.16846C96.3623 6.16846 97.5123 7.18046 97.5123 8.92846C97.5123 10.6765 96.3623 11.6885 94.7523 11.6885C93.1423 11.6885 91.9923 10.6765 91.9923 8.92846ZM92.7283 38.0005V15.0005H96.6843V38.0005H92.7283Z" fill="#101214"/>
<path d="M77.986 24.4303H68.694V33.8603H78.078C82.034 33.8603 83.828 32.4343 83.828 29.3983C83.828 26.1783 82.126 24.4303 77.986 24.4303ZM76.652 11.7343H68.694V20.7503H76.652C80.562 20.7503 82.172 18.9563 82.172 16.0583C82.172 13.1143 80.424 11.7343 76.652 11.7343ZM64.554 38.0003V7.77832H77.204C83.368 7.77832 86.358 10.8143 86.358 15.6903C86.358 19.3243 84.702 21.5783 81.298 22.4063C85.76 23.1423 87.968 25.5803 87.968 29.8583C87.968 34.6883 84.702 38.0003 77.94 38.0003H64.554Z" fill="#101214"/>
<path d="M0 12C0 5.37258 5.37258 0 12 0H36C42.6274 0 48 5.37258 48 12V36C48 42.6274 42.6274 48 36 48H12C5.37258 48 0 42.6274 0 36V12Z" fill="#94C748"/>
<path d="M35.6853 23.5267L33.713 35.5747C33.5844 36.3036 33.0698 36.7323 32.341 36.7323H15.6195C14.8907 36.7323 14.3762 36.3036 14.2475 35.5747L10.7746 14.0941C10.646 13.3652 11.0319 12.8936 11.7179 12.8936H36.2426C36.9286 12.8936 37.3145 13.3652 37.1859 14.0941L36.2426 19.7536C36.114 20.5683 35.6424 20.9113 34.8706 20.9113H20.1215C19.9071 20.9113 19.7785 21.0399 19.8213 21.2971L20.979 28.4145C21.0218 28.586 21.1505 28.7146 21.322 28.7146H26.6385C26.81 28.7146 26.9387 28.586 26.9815 28.4145L27.7962 23.2694C27.8819 22.6263 28.3107 22.369 28.9109 22.369H34.6991C35.5566 22.369 35.8139 22.7978 35.6853 23.5267Z" fill="#101214"/>
</svg>
